<svg width="32" height="32" viewBox="0 0 32 32" fill="none" xmlns="http://www.w3.org/2000/svg">
<rect width="32" height="32" rx="4" fill="#F2C94C" fill-opacity="0.2"/>
<path d="M24.3337 19.9501V9.89174C24.3337 8.89174 23.517 8.15008 22.5253 8.23341H22.4753C20.7253 8.38341 18.067 9.27508 16.5837 10.2084L16.442 10.3001C16.2003 10.4501 15.8003 10.4501 15.5587 10.3001L15.3503 10.1751C13.867 9.25008 11.217 8.36674 9.46699 8.22508C8.47533 8.14174 7.66699 8.89174 7.66699 9.88341V19.9501C7.66699 20.7501 8.31699 21.5001 9.11699 21.6001L9.35866 21.6334C11.167 21.8751 13.9587 22.7917 15.5587 23.6667L15.592 23.6834C15.817 23.8084 16.1753 23.8084 16.392 23.6834C17.992 22.8001 20.792 21.8751 22.6087 21.6334L22.8837 21.6001C23.6837 21.5001 24.3337 20.7501 24.3337 19.9501Z" stroke="#F2C94C" stroke-width="1.25" stroke-linecap="round" stroke-linejoin="round"/>
<path d="M16 10.5742V23.0742" stroke="#F2C94C" stroke-width="1.25" stroke-linecap="round" stroke-linejoin="round"/>
<path d="M12.458 13.0742H10.583" stroke="#F2C94C" stroke-width="1.25" stroke-linecap="round" stroke-linejoin="round"/>
<path d="M13.083 15.5742H10.583" stroke="#F2C94C" stroke-width="1.25" stroke-linecap="round" stroke-linejoin="round"/>
</svg>
