<svg width="36" height="36" viewBox="0 0 36 36" fill="none" xmlns="http://www.w3.org/2000/svg">
<rect width="36" height="36" rx="4" fill="#EB5757" fill-opacity="0.2"/>
<path d="M15 28H21C26 28 28 26 28 21V15C28 10 26 8 21 8H15C10 8 8 10 8 15V21C8 26 10 28 15 28Z" stroke="#EB5757" stroke-width="1.5" stroke-linecap="round" stroke-linejoin="round"/>
<path d="M13 14.75C14 13.75 15.63 13.75 16.64 14.75" stroke="#EB5757" stroke-width="1.5" stroke-miterlimit="10" stroke-linecap="round" stroke-linejoin="round"/>
<path d="M19.3604 14.75C20.3604 13.75 21.9904 13.75 23.0004 14.75" stroke="#EB5757" stroke-width="1.5" stroke-miterlimit="10" stroke-linecap="round" stroke-linejoin="round"/>
<path d="M14.4 23.7008H21.6C22.1 23.7008 22.5 23.3008 22.5 22.8008C22.5 20.3108 20.49 18.3008 18 18.3008C15.51 18.3008 13.5 20.3108 13.5 22.8008C13.5 23.3008 13.9 23.7008 14.4 23.7008Z" stroke="#EB5757" stroke-width="1.5" stroke-miterlimit="10" stroke-linecap="round" stroke-linejoin="round"/>
</svg>
