<svg width="36" height="36" viewBox="0 0 36 36" fill="none" xmlns="http://www.w3.org/2000/svg">
<rect width="36" height="36" rx="4" fill="#6FCF97" fill-opacity="0.2"/>
<path d="M15 28H21C26 28 28 26 28 21V15C28 10 26 8 21 8H15C10 8 8 10 8 15V21C8 26 10 28 15 28Z" stroke="#27AE60" stroke-width="1.5" stroke-linecap="round" stroke-linejoin="round"/>
<path d="M13 14.25C14 15.25 15.63 15.25 16.64 14.25" stroke="#27AE60" stroke-width="1.5" stroke-miterlimit="10" stroke-linecap="round" stroke-linejoin="round"/>
<path d="M19.3604 14.25C20.3604 15.25 21.9904 15.25 23.0004 14.25" stroke="#27AE60" stroke-width="1.5" stroke-miterlimit="10" stroke-linecap="round" stroke-linejoin="round"/>
<path d="M14.4 19H21.6C22.1 19 22.5 19.4 22.5 19.9C22.5 22.39 20.49 24.4 18 24.4C15.51 24.4 13.5 22.39 13.5 19.9C13.5 19.4 13.9 19 14.4 19Z" stroke="#27AE60" stroke-width="1.5" stroke-miterlimit="10" stroke-linecap="round" stroke-linejoin="round"/>
</svg>
